#!OML:ASF F:\VICON\USERDATA\INSTALL\rory3\rory3.ASF
:FULLY-SPECIFIED
:DEGREES
49
root 0.826159 17.4811 -17.5785 -2.09259 1.73481 1.06253
lowerback 6.74071 -2.59976 -3.23623
upperback 0.974014 -3.60601 3.27769
thorax -2.35419 -1.76758 5.52619
lowerneck -14.4755 -1.5681 -9.89259
upperneck 23.6326 -0.742917 4.06782
head 9.96772 -0.768706 3.00375
rclavicle -2.33572e-015 1.90833e-014
rhumerus -42.0083 -18.5345 -70.0764
rradius 23.9675
rwrist 11.2857
rhand -11.4932 14.6716
rfingers 7.12502
rthumb 14.5453 -14.7985
lclavicle -2.33572e-015 1.90833e-014
lhumerus -25.5059 0.521435 84.044
lradius 35.1527
lwrist -11.3039
lhand -10.5059 26.5667
lfingers 7.12502
lthumb 15.4965 55.9656
rfemur -19.8973 -0.00907052 23.2844
rtibia 23.6141
rfoot -0.666999 -1.46086
rtoes 11.8767
lfemur 5.68824 -1.15337 -21.7336
ltibia 46.7646
lfoot 18.0683 -8.5893
ltoes -3.16711
50
root 0.804456 17.5156 -17.388 -2.16967 1.55715 0.61709
lowerback 6.8258 -2.47144 -2.78105
upperback 1.10841 -3.40363 3.27645
thorax -2.31319 -1.67308 5.25178
lowerneck -14.9884 -1.69491 -9.81439
upperneck 23.7112 -0.955002 4.34192
head 10.1088 -0.825878 3.06482
rclavicle 4.21423e-014 3.18055e-015
rhumerus -41.53 -18.5817 -70.5869
rradius 24.0037
rwrist 10.8323
rhand -11.8095 13.979
rfingers 7.12502
rthumb 14.2406 -15.5127
lclavicle 4.21423e-014 3.18055e-015
lhumerus -25.3911 0.285221 84.0479
lradius 34.9554
lwrist -11.2631
lhand -10.655 26.2316
lfingers 7.12502
lthumb 15.3528 55.6417
rfemur -18.8455 0.352019 23.9322
rtibia 23.1009
rfoot -0.819288 -1.46549
rtoes 11.8181
lfemur 4.24516 -0.866867 -20.9996
ltibia 49.176
lfoot 21.4791 -8.26574
ltoes 2.39092
51
root 0.785337 17.5497 -17.1971 -2.27895 1.27312 0.185442
lowerback 6.94043 -2.33134 -2.41974
upperback 1.17309 -3.18912 3.38209
thorax -2.34759 -1.56843 5.1455
lowerneck -15.1604 -1.78802 -9.94998
upperneck 23.6282 -1.08635 4.56043
head 10.1236 -0.869757 3.14784
rclavicle 3.08116e-014 2.46493e-014
rhumerus -41.1777 -17.6291 -71.4124
rradius 24.5601
rwrist 9.66566
rhand -12.2281 12.9146
rfingers 7.12502
rthumb 13.8372 -16.6051
lclavicle 3.08116e-014 2.46493e-014
lhumerus -25.4968 0.251388 84.2216
lradius 34.8244
lwrist -11.2791
lhand -10.6906 26.3018
lfingers 7.12502
lthumb 15.3186 55.7144
rfemur -17.6913 0.58845 24.5686
rtibia 22.4863
rfoot -0.927155 -1.47882
rtoes 11.8047
lfemur 2.84487 -0.460054 -20.3048
ltibia 51.545
lfoot 26.4666 -7.86
ltoes 15.3433
52
root 0.771496 17.5776 -17.0063 -2.48871 0.959328 -0.304467
lowerback 7.10631 -2.1345 -1.91438
upperback 1.19211 -2.88845 3.41623
thorax -2.47574 -1.41888 4.87881
lowerneck -14.7788 -1.86683 -9.87516
upperneck 23.3011 -1.29956 4.73628
head 9.94947 -0.937046 3.16307
rclavicle 5.13361e-014 -1.51076e-014
rhumerus -41.0945 -17.1555 -71.9259
rradius 24.8748
rwrist 9.00756
rhand -12.5899 12.83
rfingers 7.12502
rthumb 13.4885 -16.7132
lclavicle 5.13361e-014 -1.51076e-014
lhumerus -25.6255 -0.065599 84.3722
lradius 34.54
lwrist -11.0752
lhand -10.9595 26.204
lfingers 7.12502
lthumb 15.0595 55.6362
rfemur -16.3821 0.739653 25.2406
rtibia 21.8202
rfoot -1.15931 -1.35741
rtoes 12.8009
lfemur 1.56649 0.0834338 -19.5467
ltibia 53.8198
lfoot 24.6588 -7.28325
ltoes 3.45996
53
root 0.759171 17.6019 -16.82 -2.52972 0.655641 -0.74134
lowerback 7.09299 -1.93889 -1.47199
upperback 1.15795 -2.5919 3.46081
thorax -2.55039 -1.27191 4.6503
lowerneck -14.2448 -1.93729 -9.88608
upperneck 22.9308 -1.49822 4.9359
head 9.73252 -1.00447 3.20244
rclavicle -1.02374e-014 -3.18055e-015
rhumerus -40.915 -17.2753 -71.9757
rradius 24.6945
rwrist 9.22592
rhand -12.6012 13.7178
rfingers 7.12502
rthumb 13.4776 -15.8261
lclavicle -1.02374e-014 -3.18055e-015
lhumerus -25.7282 -0.168525 84.5035
lradius 34.0821
lwrist -11.2865
lhand -11.3673 25.2193
lfingers 7.12502
lthumb 14.6667 54.6806
rfemur -15.2771 0.955414 25.8225
rtibia 21.1725
rfoot -1.49146 -1.2298
rtoes 13.9878
lfemur 0.0961617 0.714179 -18.8408
ltibia 56.0111
lfoot 23.5298 -6.66094
ltoes -2.67178
54
root 0.744264 17.6258 -16.6397 -2.45964 0.222921 -1.11229
lowerback 6.91943 -1.70736 -1.11417
upperback 1.22955 -2.25803 3.49149
thorax -2.42243 -1.11097 4.44158
lowerneck -14.3099 -2.05666 -9.78258
upperneck 22.8805 -1.69915 4.99887
head 9.74267 -1.07971 3.18128
rclavicle 1.38155e-014 1.03368e-014
rhumerus -40.5502 -16.9688 -72.4277
rradius 24.8739
rwrist 9.01852
rhand -12.7316 14.3717
rfingers 7.12502
rthumb 13.3519 -15.1805
lclavicle 1.38155e-014 1.03368e-014
lhumerus -25.7202 -0.213903 84.6086
lradius 33.77
lwrist -11.4725
lhand -11.8459 25.1126
lfingers 7.12502
lthumb 14.2055 54.6069
rfemur -14.3396 1.25968 26.3494
rtibia 20.5402
rfoot -1.72918 -1.15983
rtoes 14.2499
lfemur -1.46464 1.47939 -18.2228
ltibia 58.1269
lfoot 24.3812 -6.56683
ltoes 4.30098
